<svg width="42" height="42" viewBox="0 0 42 42" fill="none" xmlns="http://www.w3.org/2000/svg">
<g filter="url(#filter0_d_10_211)">
<circle cx="21" cy="21" r="21" fill="white"/>
</g>
<g clip-path="url(#clip0_10_211)">
<path d="M25.3001 12.353H17.9353C15.5383 12.353 13.5883 14.303 13.5883 16.6999V24.0649C13.5883 26.4617 15.5383 28.4117 17.9353 28.4117H25.3002C27.6971 28.4117 29.6471 26.4617 29.6471 24.0649V16.6999C29.6471 14.303 27.6971 12.353 25.3001 12.353V12.353ZM28.7056 24.0649C28.7056 25.9426 27.178 27.4703 25.3001 27.4703H17.9353C16.0574 27.4703 14.5297 25.9426 14.5297 24.0649V16.6999C14.5297 14.8221 16.0574 13.2944 17.9353 13.2944H25.3002C27.178 13.2944 28.7056 14.8221 28.7056 16.6999V24.0649Z" fill="black"/>
<path d="M21.6177 15.9916C19.1965 15.9916 17.2267 17.9613 17.2267 20.3826C17.2267 22.8038 19.1965 24.7735 21.6177 24.7735C24.0389 24.7735 26.0087 22.8038 26.0087 20.3826C26.0087 17.9613 24.0389 15.9916 21.6177 15.9916ZM21.6177 23.8321C19.7157 23.8321 18.1682 22.2847 18.1682 20.3826C18.1682 18.4806 19.7157 16.933 21.6177 16.933C23.5198 16.933 25.0672 18.4806 25.0672 20.3826C25.0672 22.2847 23.5198 23.8321 21.6177 23.8321Z" fill="black"/>
<path d="M26.1136 14.432C25.3981 14.432 24.8162 15.0141 24.8162 15.7294C24.8162 16.4449 25.3981 17.027 26.1136 17.027C26.8291 17.027 27.4112 16.4449 27.4112 15.7294C27.4112 15.0139 26.8291 14.432 26.1136 14.432ZM26.1136 16.0855C25.9174 16.0855 25.7576 15.9257 25.7576 15.7294C25.7576 15.533 25.9174 15.3734 26.1136 15.3734C26.31 15.3734 26.4698 15.533 26.4698 15.7294C26.4698 15.9257 26.31 16.0855 26.1136 16.0855Z" fill="black"/>
</g>
<defs>
<filter id="filter0_d_10_211" x="-14.2914" y="-10.2081" width="70.5828" height="70.5827" filterUnits="userSpaceOnUse" color-interpolation-filters="sRGB">
<feFlood flood-opacity="0" result="BackgroundImageFix"/>
<feColorMatrix in="SourceAlpha" type="matrix" values="0 0 0 0 0 0 0 0 0 0 0 0 0 0 0 0 0 0 127 0" result="hardAlpha"/>
<feOffset dy="4"/>
<feGaussianBlur stdDeviation="7"/>
<feColorMatrix type="matrix" values="0 0 0 0 0 0 0 0 0 0 0 0 0 0 0 0 0 0 0.15 0"/>
<feBlend mode="normal" in2="BackgroundImageFix" result="effect1_dropShadow_10_211"/>
<feBlend mode="normal" in="SourceGraphic" in2="effect1_dropShadow_10_211" result="shape"/>
</filter>
<clipPath id="clip0_10_211">
<rect width="15.7314" height="15.7314" fill="white" transform="translate(13.5883 12.353) scale(1.02081)"/>
</clipPath>
</defs>
</svg>
