<svg width="14" height="14" viewBox="0 0 14 14" fill="none" xmlns="http://www.w3.org/2000/svg">
<g clip-path="url(#clip0_10_228)">
<path d="M13.9965 13.9999V13.9993H14V8.86482C14 6.35298 13.4593 4.41807 10.5228 4.41807C9.1111 4.41807 8.16377 5.19273 7.77702 5.92715H7.73619V4.65257H4.95193V13.9993H7.8511V9.37116C7.8511 8.15257 8.0821 6.97424 9.59119 6.97424C11.0781 6.97424 11.1003 8.3649 11.1003 9.44932V13.9999H13.9965Z" fill="black"/>
<path d="M0.231001 4.65327H3.13367V14H0.231001V4.65327Z" fill="black"/>
<path d="M1.68117 0C0.753084 0 0 0.753084 0 1.68117C0 2.60925 0.753084 3.37809 1.68117 3.37809C2.60925 3.37809 3.36234 2.60925 3.36234 1.68117C3.36175 0.753084 2.60867 0 1.68117 0V0Z" fill="black"/>
</g>
<defs>
<clipPath id="clip0_10_228">
<rect width="13.3112" height="13.3112" fill="white" transform="scale(1.05175)"/>
</clipPath>
</defs>
</svg>
