<svg width="16" height="16" viewBox="0 0 16 16" fill="none" xmlns="http://www.w3.org/2000/svg">
<g clip-path="url(#clip0_10_221)">
<path d="M15.9999 3.03878C15.4049 3.29978 14.7709 3.47277 14.1099 3.55677C14.7899 3.15078 15.3089 2.51278 15.5529 1.74378C14.9189 2.12178 14.2189 2.38878 13.4729 2.53778C12.8709 1.89678 12.013 1.49978 11.077 1.49978C9.26096 1.49978 7.79897 2.97378 7.79897 4.78077C7.79897 5.04077 7.82097 5.29077 7.87497 5.52877C5.14798 5.39577 2.73499 4.08877 1.114 2.09778C0.830997 2.58878 0.664997 3.15078 0.664997 3.75577C0.664997 4.89177 1.25 5.89877 2.12199 6.48176C1.59499 6.47176 1.078 6.31876 0.639997 6.07776C0.639997 6.08776 0.639997 6.10076 0.639997 6.11376C0.639997 7.70776 1.77699 9.03175 3.26799 9.33675C3.00099 9.40975 2.70999 9.44475 2.40799 9.44475C2.19799 9.44475 1.98599 9.43275 1.78699 9.38875C2.21199 10.6877 3.41799 11.6427 4.85198 11.6737C3.73599 12.5467 2.31899 13.0727 0.784997 13.0727C0.515998 13.0727 0.257999 13.0607 0 13.0277C1.45299 13.9647 3.17499 14.4997 5.03198 14.4997C11.068 14.4997 14.3679 9.49975 14.3679 5.16577C14.3679 5.02077 14.3629 4.88077 14.3559 4.74177C15.0069 4.27977 15.5539 3.70277 15.9999 3.03878Z" fill="black"/>
</g>
<defs>
<clipPath id="clip0_10_221">
<rect width="15.7314" height="15.7314" fill="white" transform="scale(1.01707)"/>
</clipPath>
</defs>
</svg>
